<svg width="500" height="500" viewBox="0 0 500 500" fill="none" xmlns="http://www.w3.org/2000/svg">
<rect width="500" height="500" rx="250" fill="black"/>
<path d="M92 99C92 92.3726 97.3726 87 104 87H162.748V412.441H104C97.3726 412.441 92 407.068 92 400.441V99Z" fill="white"/>
<path d="M92 99C92 92.3726 97.3726 87 104 87H304.271C310.899 87 316.271 92.3726 316.271 99V140.088C316.271 146.716 310.899 152.088 304.271 152.088H92V99Z" fill="white"/>
<rect width="174.748" height="65.0881" transform="translate(162.748 217.176)" fill="white"/>
<path d="M92 347.353H304.271C310.899 347.353 316.271 352.725 316.271 359.353V400.441C316.271 407.068 310.899 412.441 304.271 412.441H104C97.3726 412.441 92 407.068 92 400.441V347.353Z" fill="white"/>
<rect x="204.489" y="173.313" width="70.748" height="152.816" rx="12" fill="white"/>
<rect x="337.496" y="87" width="70.748" height="325.441" rx="12" fill="white"/>
</svg>
